<?xml version="1.0" encoding="UTF-8" standalone="no"?>
<svg
   xmlns:dc="http://purl.org/dc/elements/1.1/"
   xmlns:cc="http://creativecommons.org/ns#"
   xmlns:rdf="http://www.w3.org/1999/02/22-rdf-syntax-ns#"
   xmlns:svg="http://www.w3.org/2000/svg"
   xmlns="http://www.w3.org/2000/svg"
   xmlns:sodipodi="http://sodipodi.sourceforge.net/DTD/sodipodi-0.dtd"
   xmlns:inkscape="http://www.inkscape.org/namespaces/inkscape"
   width="1134px"
   height="434px"
   version="1.1"
   id="svg2"
   inkscape:version="0.48.3.1 r9886"
   sodipodi:docname="bigpicturecompile.pdf">
  <metadata
     id="metadata258">
    <rdf:RDF>
      <cc:Work
         rdf:about="">
        <dc:format>image/svg+xml</dc:format>
        <dc:type
           rdf:resource="http://purl.org/dc/dcmitype/StillImage" />
        <dc:title></dc:title>
      </cc:Work>
    </rdf:RDF>
  </metadata>
  <sodipodi:namedview
     pagecolor="#ffffff"
     bordercolor="#666666"
     borderopacity="1"
     objecttolerance="10"
     gridtolerance="10"
     guidetolerance="10"
     inkscape:pageopacity="0"
     inkscape:pageshadow="2"
     inkscape:window-width="1165"
     inkscape:window-height="772"
     id="namedview256"
     showgrid="false"
     inkscape:zoom="0.72830751"
     inkscape:cx="518.71284"
     inkscape:cy="69.156405"
     inkscape:window-x="329"
     inkscape:window-y="285"
     inkscape:window-maximized="0"
     inkscape:current-layer="svg2" />
  <defs
     id="defs4" />
  <g
     transform="translate(0.5,0.5)"
     id="g6">
    <rect
       x="2"
       y="2"
       width="1130"
       height="430"
       fill="#f8cecc"
       stroke="none"
       id="rect8" />
    <rect
       x="642"
       y="32"
       width="350"
       height="400"
       fill="#ccffcc"
       stroke="none"
       id="rect10" />
    <rect
       x="462"
       y="32"
       width="180"
       height="400"
       fill="#e6ffcc"
       stroke="none"
       id="rect12" />
    <rect
       x="151"
       y="32"
       width="311"
       height="400"
       fill="#ffffcc"
       stroke="none"
       id="rect14" />
    <rect
       x="2"
       y="2"
       width="149"
       height="430"
       fill="#ccffff"
       stroke="none"
       id="rect16" />
    <path
       d="M 21 255 C 21 254 22 253 22 252 C 23 251 25 251 26 251 L 114 251 C 115 251 117 251 118 252 C 118 253 119 254 119 255 L 119 305 C 103 299 86 299 70 305 C 54 311 37 311 21 305 Z"
       fill="#ffffff"
       stroke="#000000"
       stroke-width="2"
       stroke-miterlimit="10"
       id="path18" />
    <g
       fill="#000000"
       font-family="Helvetica"
       text-anchor="middle"
       font-size="12px"
       id="g20">
      <text
         x="70"
         y="285"
         id="text22">Converters</text>
    </g>
    <path
       d="M 25 89 C 25 87 26 86 26 85 C 27 84 29 84 30 84 L 118 84 C 119 84 121 84 122 85 C 122 86 123 87 123 89 L 123 138 C 107 132 90 132 74 138 C 58 144 41 144 25 138 Z"
       fill="#ffffff"
       stroke="#000000"
       stroke-width="2"
       stroke-miterlimit="10"
       id="path24" />
    <g
       fill="#000000"
       font-family="Helvetica"
       text-anchor="middle"
       font-size="12px"
       id="g26">
      <text
         x="74"
         y="118"
         id="text28">Gluer statemets</text>
    </g>
    <path
       d="M 21 328 C 21 326 22 325 22 324 C 23 323 25 322 26 322 L 114 322 C 115 322 117 323 118 324 C 118 325 119 326 119 328 L 119 385 C 103 378 86 378 70 385 C 54 392 37 392 21 385 Z"
       fill="#ffffff"
       stroke="#000000"
       stroke-width="2"
       stroke-miterlimit="10"
       id="path30" />
    <g
       fill="#000000"
       font-family="Helvetica"
       text-anchor="middle"
       font-size="12px"
       id="g32">
      <text
         x="70"
         y="347"
         id="text34">Converter</text>
      <text
         x="70"
         y="361"
         id="text36">Precedence</text>
      <text
         x="70"
         y="375"
         id="text38">Declarations</text>
    </g>
    <path
       d="M 33 168 C 33 165 35 162 38 162 L 117 162 C 120 162 123 165 123 168 L 123 214 C 109 208 92 208 78 214 C 63 220 47 220 33 214 Z"
       fill="#ffffff"
       stroke="#000000"
       stroke-width="2"
       stroke-miterlimit="10"
       id="path40" />
    <path
       d="M 27 174 C 27 172 27 171 28 170 C 30 168 31 168 33 168 L 111 168 C 113 168 114 168 116 170 C 117 171 117 172 117 174 L 117 220 C 103 214 86 214 72 220 C 58 226 41 226 27 220 Z"
       fill="#ffffff"
       stroke="#000000"
       stroke-width="2"
       stroke-miterlimit="10"
       id="path42" />
    <path
       d="M 21 179 C 21 176 24 174 27 174 L 106 174 C 109 174 111 176 111 179 L 111 226 C 97 220 81 220 66 226 C 52 232 35 232 21 226 Z"
       fill="#ffffff"
       stroke="#000000"
       stroke-width="2"
       stroke-miterlimit="10"
       id="path44" />
    <g
       fill="#000000"
       font-family="Helvetica"
       text-anchor="middle"
       font-size="12px"
       id="g46">
      <text
         x="72"
         y="194"
         id="text48">Application</text>
      <text
         x="72"
         y="208"
         id="text50">Classes</text>
    </g>
    <rect
       x="185"
       y="324"
       width="98"
       height="60"
       rx="4"
       ry="4"
       fill="#ffffff"
       stroke="#000000"
       stroke-width="2"
       id="rect52" />
    <g
       fill="#000000"
       font-family="Helvetica"
       text-anchor="middle"
       font-size="12px"
       id="g54">
      <text
         x="234"
         y="351"
         id="text56">Check</text>
      <text
         x="234"
         y="365"
         id="text58">Converters</text>
    </g>
    <rect
       x="185"
       y="85"
       width="98"
       height="60"
       rx="4"
       ry="4"
       fill="#ffffff"
       stroke="#000000"
       stroke-width="2"
       id="rect60" />
    <g
       fill="#000000"
       font-family="Helvetica"
       text-anchor="middle"
       font-size="12px"
       id="g62">
      <text
         x="234"
         y="112"
         id="text64">Check Gluer</text>
      <text
         x="234"
         y="126"
         id="text66">Statements</text>
    </g>
    <path
       d="M 123 197 L 183 348"
       fill="none"
       stroke="#000000"
       stroke-miterlimit="10"
       id="path68" />
    <path
       d="M 185 352 L 179 347 L 183 348 L 185 345 Z"
       fill="#000000"
       stroke="#000000"
       stroke-miterlimit="10"
       id="path70" />
    <path
       d="M 119 281 L 181 349"
       fill="none"
       stroke="#000000"
       stroke-miterlimit="10"
       id="path72" />
    <path
       d="M 184 353 L 177 350 L 181 349 L 182 345 Z"
       fill="#000000"
       stroke="#000000"
       stroke-miterlimit="10"
       id="path74" />
    <path
       d="M 119 357 L 179 354"
       fill="none"
       stroke="#000000"
       stroke-miterlimit="10"
       id="path76" />
    <path
       d="M 184 354 L 177 357 L 179 354 L 177 350 Z"
       fill="#000000"
       stroke="#000000"
       stroke-miterlimit="10"
       id="path78" />
    <path
       d="M 123 114 L 179 115"
       fill="none"
       stroke="#000000"
       stroke-miterlimit="10"
       id="path80" />
    <path
       d="M 184 115 L 177 118 L 179 115 L 177 111 Z"
       fill="#000000"
       stroke="#000000"
       stroke-miterlimit="10"
       id="path82" />
    <path
       d="M 123 197 L 181 120"
       fill="none"
       stroke="#000000"
       stroke-miterlimit="10"
       id="path84" />
    <path
       d="M 184 116 L 183 124 L 181 120 L 177 120 Z"
       fill="#000000"
       stroke="#000000"
       stroke-miterlimit="10"
       id="path86" />
    <path
       d="M 376 323 L 422 349 C 423 349 423 350 423 350 C 423 351 423 352 422 352 L 376 378 C 375 379 373 379 372 378 L 326 352 C 325 352 325 351 325 350 C 325 350 325 349 326 349 L 372 323 C 373 322 375 322 376 323 Z"
       fill="#ffffff"
       stroke="#000000"
       stroke-width="2"
       stroke-miterlimit="10"
       id="path88" />
    <g
       fill="#000000"
       font-family="Helvetica"
       text-anchor="middle"
       font-size="12px"
       id="g90">
      <text
         x="374"
         y="355"
         id="text92">passed?</text>
    </g>
    <rect
       x="325"
       y="199"
       width="98"
       height="60"
       rx="4"
       ry="4"
       fill="#ffffff"
       stroke="#000000"
       stroke-width="2"
       id="rect94" />
    <g
       fill="#000000"
       font-family="Helvetica"
       text-anchor="middle"
       font-size="12px"
       id="g96">
      <text
         x="374"
         y="226"
         id="text98">Compile</text>
      <text
         x="374"
         y="240"
         id="text100">Error</text>
    </g>
    <path
       d="M 283 115 L 319 116"
       fill="none"
       stroke="#000000"
       stroke-miterlimit="10"
       id="path102" />
    <path
       d="M 324 116 L 317 119 L 319 116 L 317 112 Z"
       fill="#000000"
       stroke="#000000"
       stroke-miterlimit="10"
       id="path104" />
    <path
       d="M 283 354 L 319 351"
       fill="none"
       stroke="#000000"
       stroke-miterlimit="10"
       id="path106" />
    <path
       d="M 324 351 L 317 355 L 319 351 L 317 348 Z"
       fill="#000000"
       stroke="#000000"
       stroke-miterlimit="10"
       id="path108" />
    <path
       d="M 374 322 L 374 265"
       fill="none"
       stroke="#000000"
       stroke-miterlimit="10"
       id="path110" />
    <path
       d="M 374 260 L 378 267 L 374 265 L 371 267 Z"
       fill="#000000"
       stroke="#000000"
       stroke-miterlimit="10"
       id="path112" />
    <path
       d="M 376 87 L 422 114 C 423 114 423 115 423 116 C 423 117 423 118 422 118 L 376 145 C 375 145 373 145 372 145 L 326 118 C 325 118 325 117 325 116 C 325 115 325 114 326 114 L 372 87 C 373 87 375 87 376 87 Z"
       fill="#ffffff"
       stroke="#000000"
       stroke-width="2"
       stroke-miterlimit="10"
       id="path114" />
    <g
       fill="#000000"
       font-family="Helvetica"
       text-anchor="middle"
       font-size="12px"
       id="g116">
      <text
         x="374"
         y="120"
         id="text118">passed?</text>
    </g>
    <path
       d="M 374 145 L 374 192"
       fill="none"
       stroke="#000000"
       stroke-miterlimit="10"
       id="path120" />
    <path
       d="M 374 197 L 371 190 L 374 192 L 378 190 Z"
       fill="#000000"
       stroke="#000000"
       stroke-miterlimit="10"
       id="path122" />
    <rect
       x="500"
       y="197"
       width="98"
       height="62"
       rx="4"
       ry="4"
       fill="#ffffff"
       stroke="#000000"
       stroke-width="2"
       id="rect124" />
    <g
       fill="#000000"
       font-family="Helvetica"
       text-anchor="middle"
       font-size="12px"
       id="g126">
      <text
         x="549"
         y="225"
         id="text128">Build Conversion</text>
      <text
         x="549"
         y="239"
         id="text130">Registry</text>
    </g>
    <path
       d="M 519 316 C 520 314 520 313 521 312 C 522 311 523 311 524 311 L 593 311 C 594 311 596 311 597 312 C 598 313 598 314 598 316 L 579 365 C 578 367 577 368 577 369 C 576 370 575 370 574 370 L 504 370 C 503 370 502 370 501 369 C 500 368 500 366 500 365 Z"
       fill="#ffffff"
       stroke="#000000"
       stroke-width="2"
       stroke-miterlimit="10"
       id="path132" />
    <g
       fill="#000000"
       font-family="Helvetica"
       text-anchor="middle"
       font-size="12px"
       id="g134">
      <text
         x="549"
         y="338"
         id="text136">Conversion</text>
      <text
         x="549"
         y="352"
         id="text138">Registry</text>
    </g>
    <path
       d="M 423 351 L 497 233"
       fill="none"
       stroke="#000000"
       stroke-miterlimit="10"
       id="path140" />
    <path
       d="M 499 228 L 499 236 L 497 233 L 493 233 Z"
       fill="#000000"
       stroke="#000000"
       stroke-miterlimit="10"
       id="path142" />
    <path
       d="M 549 259 L 549 302"
       fill="none"
       stroke="#000000"
       stroke-miterlimit="10"
       id="path144" />
    <path
       d="M 549 309 L 546 302 L 553 302 Z"
       fill="#000000"
       stroke="#000000"
       stroke-miterlimit="10"
       id="path146" />
    <rect
       x="682"
       y="314"
       width="98"
       height="57"
       rx="4"
       ry="4"
       fill="#ffffff"
       stroke="#000000"
       stroke-width="2"
       id="rect148" />
    <g
       fill="#000000"
       font-family="Helvetica"
       text-anchor="middle"
       font-size="12px"
       id="g150">
      <text
         x="731"
         y="332"
         id="text152">Generate</text>
      <text
         x="731"
         y="346"
         id="text154">Conversion </text>
      <text
         x="731"
         y="360"
         id="text156">Aspects</text>
    </g>
    <path
       d="M 589 341 L 676 342"
       fill="none"
       stroke="#000000"
       stroke-miterlimit="10"
       id="path158" />
    <path
       d="M 681 342 L 674 345 L 676 342 L 674 338 Z"
       fill="#000000"
       stroke="#000000"
       stroke-miterlimit="10"
       id="path160" />
    <rect
       x="682"
       y="84"
       width="98"
       height="60"
       rx="4"
       ry="4"
       fill="#ffffff"
       stroke="#000000"
       stroke-width="2"
       id="rect162" />
    <g
       fill="#000000"
       font-family="Helvetica"
       text-anchor="middle"
       font-size="12px"
       id="g164">
      <text
         x="731"
         y="111"
         id="text166">Byte-code</text>
      <text
         x="731"
         y="125"
         id="text168">instrumentation</text>
    </g>
    <path
       d="M 423 116 L 676 114"
       fill="none"
       stroke="#000000"
       stroke-miterlimit="10"
       id="path170" />
    <path
       d="M 681 114 L 674 117 L 676 114 L 674 110 Z"
       fill="#000000"
       stroke="#000000"
       stroke-miterlimit="10"
       id="path172" />
    <path
       d="M 837 149 C 836 147 838 143 840 142 C 842 141 845 141 846 144 L 965 144 C 967 144 970 144 972 145 C 973 146 974 148 973 149 L 941 200 C 942 203 940 206 938 207 C 936 209 933 208 932 205 L 812 205 C 809 205 807 205 806 204 C 804 203 804 201 805 200 Z"
       fill="#ffffff"
       stroke="#000000"
       stroke-width="2"
       stroke-miterlimit="10"
       id="path174" />
    <g
       fill="#000000"
       font-family="Helvetica"
       text-anchor="middle"
       font-size="12px"
       id="g176">
      <text
         x="889"
         y="165"
         id="text178">Application code</text>
      <text
         x="889"
         y="179"
         id="text180">instrumented with</text>
      <text
         x="889"
         y="193"
         id="text182">conversion requests</text>
    </g>
    <path
       d="M 834 247 C 835 246 835 244 836 243 C 837 243 838 242 839 242 L 908 242 C 909 242 911 243 912 244 C 913 245 913 246 913 247 L 894 297 C 893 298 892 300 892 301 C 891 301 890 302 889 302 L 819 302 C 818 302 817 301 816 300 C 815 299 815 298 815 297 Z"
       fill="#ffffff"
       stroke="#000000"
       stroke-width="2"
       stroke-miterlimit="10"
       id="path184" />
    <g
       fill="#000000"
       font-family="Helvetica"
       text-anchor="middle"
       font-size="12px"
       id="g186">
      <text
         x="864"
         y="269"
         id="text188">Conversion</text>
      <text
         x="864"
         y="283"
         id="text190">Aspects</text>
    </g>
    <path
       d="M 731 314 L 818 275"
       fill="none"
       stroke="#000000"
       stroke-miterlimit="10"
       id="path192" />
    <path
       d="M 823 272 L 818 278 L 818 275 L 815 272 Z"
       fill="#000000"
       stroke="#000000"
       stroke-miterlimit="10"
       id="path194" />
    <path
       d="M 780 114 L 817 169"
       fill="none"
       stroke="#000000"
       stroke-miterlimit="10"
       id="path196" />
    <path
       d="M 820 174 L 813 170 L 817 169 L 819 166 Z"
       fill="#000000"
       stroke="#000000"
       stroke-miterlimit="10"
       id="path198" />
    <rect
       x="1012"
       y="145"
       width="98"
       height="60"
       rx="4"
       ry="4"
       fill="#ffffff"
       stroke="#000000"
       stroke-width="2"
       id="rect200" />
    <g
       fill="#000000"
       font-family="Helvetica"
       text-anchor="middle"
       font-size="12px"
       id="g202">
      <text
         x="1061"
         y="172"
         id="text204">Final </text>
      <text
         x="1061"
         y="186"
         id="text206">Compilation</text>
    </g>
    <path
       d="M 904 272 L 1007 179"
       fill="none"
       stroke="#000000"
       stroke-miterlimit="10"
       id="path208" />
    <path
       d="M 1011 176 L 1008 183 L 1007 179 L 1004 178 Z"
       fill="#000000"
       stroke="#000000"
       stroke-miterlimit="10"
       id="path210" />
    <path
       d="M 958 175 L 1006 175"
       fill="none"
       stroke="#000000"
       stroke-miterlimit="10"
       id="path212" />
    <path
       d="M 1011 175 L 1004 179 L 1006 175 L 1004 172 Z"
       fill="#000000"
       stroke="#000000"
       stroke-miterlimit="10"
       id="path214" />
    <path
       d="M 123 197 L 168 81 Q 172 72 182 72 L 992 72 Q 1002 72 1008 80 L 1057 140"
       fill="none"
       stroke="#000000"
       stroke-miterlimit="10"
       id="path216" />
    <path
       d="M 1060 144 L 1053 141 L 1057 140 L 1059 137 Z"
       fill="#000000"
       stroke="#000000"
       stroke-miterlimit="10"
       id="path218" />
    <path
       d="M 1031 316 C 1032 314 1032 313 1033 312 C 1034 311 1035 311 1036 311 L 1105 311 C 1106 311 1108 311 1109 312 C 1110 313 1110 314 1110 316 L 1091 365 C 1090 367 1089 368 1089 369 C 1088 370 1087 370 1086 370 L 1016 370 C 1015 370 1014 370 1013 369 C 1012 368 1012 366 1012 365 Z"
       fill="#ffffff"
       stroke="#000000"
       stroke-width="2"
       stroke-miterlimit="10"
       id="path220" />
    <g
       fill="#000000"
       font-family="Helvetica"
       text-anchor="middle"
       font-size="12px"
       id="g222">
      <text
         x="1061"
         y="345"
         id="text224">Executable</text>
    </g>
    <path
       d="M 1061 205 L 1061 304"
       fill="none"
       stroke="#000000"
       stroke-miterlimit="10"
       id="path226" />
    <path
       d="M 1061 309 L 1058 302 L 1061 304 L 1065 302 Z"
       fill="#000000"
       stroke="#000000"
       stroke-miterlimit="10"
       id="path228" />
    <rect
       x="10"
       y="5"
       width="30"
       height="20"
       fill="none"
       stroke="none"
       id="rect230" />
    <g
       fill="#000000"
       font-family="Helvetica"
       font-weight="bold"
       font-size="14px"
       id="g232">
      <text
         x="12"
         y="20"
         id="text234">Development Time</text>
    </g>
    <rect
       x="568"
       y="3"
       width="30"
       height="20"
       fill="none"
       stroke="none"
       id="rect236" />
    <g
       fill="#000000"
       font-family="Helvetica"
       font-weight="bold"
       font-size="18px"
       id="g238">
      <text
         x="570"
         y="22"
         id="text240">Compile Time</text>
    </g>
    <rect
       x="268"
       y="42"
       width="34"
       height="20"
       fill="none"
       stroke="none"
       id="rect242" />
    <g
       fill="#000000"
       font-family="Helvetica"
       font-weight="bold"
       font-size="14px"
       id="g244">
      <text
         x="270"
         y="57"
         id="text246">Checking</text>
    </g>
    <rect
       x="532"
       y="36"
       width="30"
       height="20"
       fill="none"
       stroke="none"
       id="rect248" />
    <g
       fill="#000000"
       font-family="Helvetica"
       font-weight="bold"
       text-anchor="middle"
       font-size="12px"
       id="g250">
      <text
         x="547"
         y="49"
         id="text252">Creating the </text>
      <text
         x="547"
         y="63"
         id="text254">Conversion Registry</text>
    </g>
  </g>
</svg>
