<?xml version="1.0" encoding="UTF-8" standalone="no"?>
<svg
   xmlns:dc="http://purl.org/dc/elements/1.1/"
   xmlns:cc="http://creativecommons.org/ns#"
   xmlns:rdf="http://www.w3.org/1999/02/22-rdf-syntax-ns#"
   xmlns:svg="http://www.w3.org/2000/svg"
   xmlns="http://www.w3.org/2000/svg"
   xmlns:sodipodi="http://sodipodi.sourceforge.net/DTD/sodipodi-0.dtd"
   xmlns:inkscape="http://www.inkscape.org/namespaces/inkscape"
   style="background-color: rgb(255, 255, 255);"
   width="642px"
   height="304px"
   version="1.1"
   id="svg2"
   inkscape:version="0.48.3.1 r9886"
   sodipodi:docname="zamkusecase.pdf">
  <metadata
     id="metadata82">
    <rdf:RDF>
      <cc:Work
         rdf:about="">
        <dc:format>image/svg+xml</dc:format>
        <dc:type
           rdf:resource="http://purl.org/dc/dcmitype/StillImage" />
        <dc:title></dc:title>
      </cc:Work>
    </rdf:RDF>
  </metadata>
  <sodipodi:namedview
     pagecolor="#ffffff"
     bordercolor="#666666"
     borderopacity="1"
     objecttolerance="10"
     gridtolerance="10"
     guidetolerance="10"
     inkscape:pageopacity="0"
     inkscape:pageshadow="2"
     inkscape:window-width="1142"
     inkscape:window-height="773"
     id="namedview80"
     showgrid="false"
     inkscape:zoom="0.90965732"
     inkscape:cx="351.57342"
     inkscape:cy="80.369499"
     inkscape:window-x="288"
     inkscape:window-y="228"
     inkscape:window-maximized="0"
     inkscape:current-layer="g6" />
  <defs
     id="defs4" />
  <g
     transform="translate(0.5,0.5)"
     id="g6">
    <path
       d="M 30 62 C 17 62 17 42 30 42 C 43 42 43 62 30 62 Z M 30 62 L 30 95 M 30 69 L 10 69 M 30 69 L 50 69 M 30 95 L 10 122 M 30 95 L 50 122"
       fill="#ffffff"
       stroke="#000000"
       stroke-miterlimit="10"
       id="path8" />
    <g
       fill="#000000"
       font-family="Helvetica"
       text-anchor="middle"
       font-size="12px"
       id="g10">
      <text
         x="30"
         y="140"
         id="text12">Developer</text>
    </g>
    <ellipse
       cx="190"
       cy="87"
       rx="70"
       ry="35"
       fill="#ffffff"
       stroke="#000000"
       id="ellipse14"
       d="m 260,87 c 0,19.32997 -31.34007,35 -70,35 -38.65993,0 -70,-15.67003 -70,-35 0,-19.329966 31.34007,-35 70,-35 38.65993,0 70,15.670034 70,35 z"
       style="fill:#fff8e0" />
    <g
       fill="#000000"
       font-family="Helvetica"
       text-anchor="middle"
       font-size="12px"
       id="g16">
      <text
         x="190"
         y="77"
         id="text18">Integrate two</text>
      <text
         x="190"
         y="91"
         id="text20">components</text>
      <text
         x="190"
         y="105"
         id="text22">using zamk</text>
    </g>
    <ellipse
       cx="370"
       cy="37"
       rx="70"
       ry="35"
       fill="#ffffff"
       stroke="#000000"
       id="ellipse24"
       d="m 440,37 c 0,19.329966 -31.34007,35 -70,35 -38.65993,0 -70,-15.670034 -70,-35 0,-19.329966 31.34007,-35 70,-35 38.65993,0 70,15.670034 70,35 z"
       style="fill:#fff8e0" />
    <g
       fill="#000000"
       font-family="Helvetica"
       text-anchor="middle"
       font-size="12px"
       id="g26">
      <text
         x="370"
         y="41"
         id="text28">Provide Converters</text>
    </g>
    <ellipse
       cx="370"
       cy="132"
       rx="70"
       ry="35"
       fill="#ffffff"
       stroke="#000000"
       id="ellipse30"
       d="m 440,132 c 0,19.32997 -31.34007,35 -70,35 -38.65993,0 -70,-15.67003 -70,-35 0,-19.32997 31.34007,-35 70,-35 38.65993,0 70,15.67003 70,35 z"
       style="fill:#fff8e0" />
    <g
       fill="#000000"
       font-family="Helvetica"
       text-anchor="middle"
       font-size="12px"
       id="g32">
      <text
         x="370"
         y="129"
         id="text34">Implement</text>
      <text
         x="370"
         y="143"
         id="text36">Bindings</text>
    </g>
    <ellipse
       cx="570"
       cy="97"
       rx="70"
       ry="35"
       fill="#ffffff"
       stroke="#000000"
       id="ellipse38"
       d="m 640,97 c 0,19.32997 -31.34007,35 -70,35 -38.65993,0 -70,-15.67003 -70,-35 0,-19.329966 31.34007,-35 70,-35 38.65993,0 70,15.670034 70,35 z"
       style="fill:#fff8e0" />
    <g
       fill="#000000"
       font-family="Helvetica"
       text-anchor="middle"
       font-size="12px"
       id="g40">
      <text
         x="570"
         y="94"
         id="text42">Implement bindings</text>
      <text
         x="570"
         y="108"
         id="text44">using Gluer</text>
    </g>
    <ellipse
       cx="570"
       cy="192"
       rx="70"
       ry="35"
       fill="#ffffff"
       stroke="#000000"
       id="ellipse46"
       d="m 640,192 c 0,19.32997 -31.34007,35 -70,35 -38.65993,0 -70,-15.67003 -70,-35 0,-19.32997 31.34007,-35 70,-35 38.65993,0 70,15.67003 70,35 z"
       style="fill:#fff8e0" />
    <g
       fill="#000000"
       font-family="Helvetica"
       text-anchor="middle"
       font-size="12px"
       id="g48">
      <text
         x="570"
         y="189"
         id="text50">Implement bindings</text>
      <text
         x="570"
         y="203"
         id="text52">using API calls</text>
    </g>
    <path
       d="M 30 82 L 120 87"
       fill="none"
       stroke="#000000"
       stroke-miterlimit="10"
       id="path54" />
    <path
       d="M 239 62 L 300 37"
       fill="none"
       stroke="#000000"
       stroke-miterlimit="10"
       id="path56" />
    <path
       d="M 244 109 L 300 132"
       fill="none"
       stroke="#000000"
       stroke-miterlimit="10"
       id="path58" />
    <path
       d="M 419 107 L 500 97"
       fill="none"
       stroke="#000000"
       stroke-miterlimit="10"
       id="path60" />
    <path
       d="M 419 157 L 510 174"
       fill="none"
       stroke="#000000"
       stroke-miterlimit="10"
       id="path62" />
    <g
       id="g3059"
       transform="translate(-47.270548,-10.993151)">
      <path
         id="path64"
         stroke-miterlimit="10"
         d="m 250,212 100,0 30,30 0,60 -130,0 0,-90 z"
         inkscape:connector-curvature="0"
         style="fill:#ffffff;stroke:#000000;stroke-miterlimit:10" />
      <path
         id="path66"
         stroke-miterlimit="10"
         d="m 350,212 0,30 30,0"
         inkscape:connector-curvature="0"
         style="fill:none;stroke:#000000;stroke-miterlimit:10" />
      <g
         id="g68"
         font-size="12px"
         style="font-size:12px;text-anchor:middle;fill:#000000;font-family:Helvetica">
        <text
           id="text70"
           y="240"
           x="315">Bindings are</text>
        <text
           id="text72"
           y="254"
           x="315">zamk</text>
        <text
           id="text74"
           y="268"
           x="315">conversion</text>
        <text
           id="text76"
           y="282"
           x="315">requests</text>
      </g>
    </g>
    <path
       d="m 369.95031,167.04969 -91.17802,32.80815"
       stroke-miterlimit="10"
       id="path78"
       inkscape:connector-curvature="0"
       style="fill:none;stroke:#000000;stroke-width:1.09938133;stroke-miterlimit:10;stroke-dasharray:3.29814399, 3.29814399" />
  </g>
</svg>
